<svg width="25" height="23" viewBox="0 0 25 23" fill="none" xmlns="http://www.w3.org/2000/svg">
<g id="Like Icon">
<g id="Vector" filter="url(#filter0_d_71_112)">
<path d="M20.5 4.88519C20.5 6.17392 20.0101 7.41175 19.1353 8.32742C17.1215 10.4358 15.1684 12.6344 13.0794 14.6664C12.6005 15.1254 11.841 15.1087 11.3828 14.6289L5.36435 8.32742C3.54522 6.42267 3.54522 3.34769 5.36435 1.44298C7.20136 -0.480459 10.194 -0.480459 12.031 1.44298L12.2498 1.67202L12.4685 1.44311C13.3492 0.520417 14.5488 0 15.8019 0C17.055 0 18.2544 0.520367 19.1353 1.44298C20.0102 2.35871 20.5 3.59648 20.5 4.88519Z" fill="#FF6D6D"/>
</g>
</g>
<defs>
<filter id="filter0_d_71_112" x="0" y="0" width="24.5" height="23" filterUnits="userSpaceOnUse" color-interpolation-filters="sRGB">
<feFlood flood-opacity="0" result="BackgroundImageFix"/>
<feColorMatrix in="SourceAlpha" type="matrix" values="0 0 0 0 0 0 0 0 0 0 0 0 0 0 0 0 0 0 127 0" result="hardAlpha"/>
<feOffset dy="4"/>
<feGaussianBlur stdDeviation="2"/>
<feComposite in2="hardAlpha" operator="out"/>
<feColorMatrix type="matrix" values="0 0 0 0 0 0 0 0 0 0 0 0 0 0 0 0 0 0 0.25 0"/>
<feBlend mode="normal" in2="BackgroundImageFix" result="effect1_dropShadow_71_112"/>
<feBlend mode="normal" in="SourceGraphic" in2="effect1_dropShadow_71_112" result="shape"/>
</filter>
</defs>
</svg>
